<?xml version="1.0" encoding="UTF-8" standalone="no"?>
<svg
   xmlns:dc="http://purl.org/dc/elements/1.1/"
   xmlns:cc="http://creativecommons.org/ns#"
   xmlns:rdf="http://www.w3.org/1999/02/22-rdf-syntax-ns#"
   xmlns:svg="http://www.w3.org/2000/svg"
   xmlns="http://www.w3.org/2000/svg"
   xmlns:sodipodi="http://sodipodi.sourceforge.net/DTD/sodipodi-0.dtd"
   xmlns:inkscape="http://www.inkscape.org/namespaces/inkscape"
   version="1.1"
   id="svg10"
   width="998.89807"
   height="999.349"
   viewBox="0 0 998.89807 999.349"
   sodipodi:docname="PlayStation startup icon.svg"
   inkscape:version="1.0 (4035a4f, 2020-05-01)">
  <metadata
     id="metadata16">
    <rdf:RDF>
      <cc:Work
         rdf:about="">
        <dc:format>image/svg+xml</dc:format>
        <dc:type
           rdf:resource="http://purl.org/dc/dcmitype/StillImage" />
        <dc:title />
      </cc:Work>
    </rdf:RDF>
  </metadata>
  <defs
     id="defs14" />
  <sodipodi:namedview
     inkscape:document-rotation="0"
     pagecolor="#ffffff"
     bordercolor="#666666"
     borderopacity="1"
     objecttolerance="10"
     gridtolerance="10"
     guidetolerance="10"
     inkscape:pageopacity="0"
     inkscape:pageshadow="2"
     inkscape:window-width="1440"
     inkscape:window-height="847"
     id="namedview12"
     showgrid="false"
     inkscape:pagecheckerboard="true"
     inkscape:zoom="0.55678084"
     inkscape:cx="1235.6538"
     inkscape:cy="692.11279"
     inkscape:window-x="0"
     inkscape:window-y="25"
     inkscape:window-maximized="0"
     inkscape:current-layer="g18" />
  <g
     inkscape:groupmode="layer"
     inkscape:label="Image"
     id="g18"
     transform="translate(-1.1415515,-1.171874)">
    <path
       style="fill:#3d6092;fill-opacity:1;stroke:#000000;stroke-width:0;stroke-linecap:butt;stroke-linejoin:miter;stroke-miterlimit:4;stroke-dasharray:none;stroke-opacity:1"
       d="m 326.76929,594.29343 64.87821,-24.54337 v 46.51827 z"
       id="path22" />
    <path
       style="fill:#31887f;fill-opacity:1;stroke:#000000;stroke-width:0;stroke-linecap:butt;stroke-linejoin:miter;stroke-miterlimit:4;stroke-dasharray:none;stroke-opacity:1"
       d="m 115.04699,673.5148 211.7223,-79.22137 64.87821,21.9749 v 45.9475 L 244.13161,720.0633 Z"
       id="path24" />
    <path
       style="fill:#1a352f;fill-opacity:1;stroke:#000000;stroke-width:0;stroke-linecap:butt;stroke-linejoin:miter;stroke-miterlimit:4;stroke-dasharray:none;stroke-opacity:1"
       d="m 244.13161,720.0633 v 34.23873 l 147.58292,-62.2889 -0.067,-29.7973 z"
       id="path26" />
    <path
       style="fill:#2d7a74;fill-opacity:1;stroke:#000000;stroke-width:0;stroke-linecap:butt;stroke-linejoin:miter;stroke-miterlimit:4;stroke-dasharray:none;stroke-opacity:1"
       d="m 325.52419,746.9027 66.19034,-25.29227 v 53.8133 z"
       id="path28" />
    <path
       style="fill:#dea507;fill-opacity:1;stroke:#000000;stroke-width:0;stroke-linecap:butt;stroke-linejoin:miter;stroke-miterlimit:4;stroke-dasharray:none;stroke-opacity:1"
       d="m 115.04699,673.5148 -44.27076,16.57393 -36.339407,21.49924 -33.2952709,32.91476 14.8217349,47.065 37.534766,25.15774 52.198877,21.5253 71.70621,14.79867 83.81418,5.78493 91.07899,-13.85693 39.28369,-15.60587 0.13453,-53.94784 -66.19034,-28.52103 -102.1107,39.6873 -37.2657,2.018 -30.26997,-7.53387 -5.65039,-13.99146 17.48931,-16.41304 76.41487,-30.60633 z"
       id="path30" />
    <path
       style="fill:#d9b34b;fill-opacity:1;stroke:#000000;stroke-width:0;stroke-linecap:butt;stroke-linejoin:miter;stroke-miterlimit:4;stroke-dasharray:none;stroke-opacity:1"
       d="m 1.1415521,744.50273 v 42.1423 l 14.2694019,38.90794 0.552333,-33.98524 z"
       id="path34" />
    <path
       style="fill:#e3aa08;fill-opacity:1;stroke:#000000;stroke-width:0;stroke-linecap:butt;stroke-linejoin:miter;stroke-miterlimit:4;stroke-dasharray:none;stroke-opacity:1"
       d="m 15.963287,791.56773 37.534766,25.15774 -0.03536,37.3663 -38.051736,-28.5388 z"
       id="path36" />
    <path
       style="fill:#d29a09;fill-opacity:1;stroke:#000000;stroke-width:0;stroke-linecap:butt;stroke-linejoin:miter;stroke-miterlimit:4;stroke-dasharray:none;stroke-opacity:1"
       d="m 53.498053,816.72547 52.198877,21.5253 -0.67413,37.8159 -51.56011,-21.9749 z"
       id="path38" />
    <path
       style="fill:#b08409;fill-opacity:1;stroke:#000000;stroke-width:0;stroke-linecap:butt;stroke-linejoin:miter;stroke-miterlimit:4;stroke-dasharray:none;stroke-opacity:1"
       d="m 105.69693,838.25077 71.70621,14.79867 0.3936,38.33306 -72.77394,-15.31583 z"
       id="path40" />
    <path
       style="fill:#73590c;fill-opacity:1;stroke:#000000;stroke-width:0;stroke-linecap:butt;stroke-linejoin:miter;stroke-miterlimit:4;stroke-dasharray:none;stroke-opacity:1"
       d="m 177.40314,853.04944 83.81418,5.78493 0.4835,36.0679 -83.90408,-3.51977 z"
       id="path42" />
    <path
       style="fill:#51420f;fill-opacity:1;stroke:#000000;stroke-width:0;stroke-linecap:butt;stroke-linejoin:miter;stroke-miterlimit:4;stroke-dasharray:none;stroke-opacity:1"
       d="m 261.21732,858.83437 91.07899,-13.85693 39.28369,-15.60587 0.13453,39.5528 -34.91135,11.97343 -95.10236,14.00447 z"
       id="path44" />
    <path
       style="fill:#f8290e;fill-opacity:1;stroke:#000000;stroke-width:0;stroke-linecap:butt;stroke-linejoin:miter;stroke-miterlimit:4;stroke-dasharray:none;stroke-opacity:1"
       d="M 391.84906,927.44634 V 11.625999 l 280.90534,63.821209 65.92128,25.830382 44.39595,27.57932 47.75928,46.68304 33.13379,56.97647 21.30896,74.77169 4.5662,92.84628 -15.2207,83.71384 -27.96802,61.26333 -35.95889,33.6758 -39.38355,15.41094 H 700.91299 L 655.63144,572.88933 V 208.07292 l -22.31853,-45.05208 -27.73439,-6.77084 -18.88019,14.84375 -10.67706,43.6198 v 785.80735 z"
       id="path46" />
    <path
       style="fill:#f8290e;fill-opacity:1;stroke:#000000;stroke-width:0;stroke-linecap:butt;stroke-linejoin:miter;stroke-miterlimit:4;stroke-dasharray:none;stroke-opacity:1"
       d="M 391.84906,11.625999 422.76609,1.1718745 704.66706,65.885418 672.7544,75.447208 Z"
       id="path50" />
    <path
       style="fill:#f22814;fill-opacity:1;stroke:#000000;stroke-width:0;stroke-linecap:butt;stroke-linejoin:miter;stroke-miterlimit:4;stroke-dasharray:none;stroke-opacity:1"
       d="m 672.7544,75.447208 31.91266,-9.56179 60.02601,21.614584 47.52601,31.249998 -29.14745,10.10691 -44.39595,-27.57932 z"
       id="path52" />
    <path
       style="fill:#f22814;fill-opacity:1;stroke:#000000;stroke-width:0;stroke-linecap:butt;stroke-linejoin:miter;stroke-miterlimit:4;stroke-dasharray:none;stroke-opacity:1"
       d="m 812.21908,118.75 -29.14745,10.10691 47.75928,46.68304 30.99752,-12.64932 z"
       id="path54" />
    <path
       style="fill:#d7260e;fill-opacity:1;stroke:#000000;stroke-width:0;stroke-linecap:butt;stroke-linejoin:miter;stroke-miterlimit:4;stroke-dasharray:none;stroke-opacity:1"
       d="m 861.82843,162.89063 -30.99752,12.64932 33.13379,56.97647 31.84812,-8.68829 z"
       id="path56" />
    <path
       style="fill:#a62012;fill-opacity:1;stroke:#000000;stroke-width:0;stroke-linecap:butt;stroke-linejoin:miter;stroke-miterlimit:4;stroke-dasharray:none;stroke-opacity:1"
       d="m 863.9647,232.51642 31.84812,-8.68829 20.57289,73.95834 -31.11205,9.50164 z"
       id="path58" />
    <path
       style="fill:#6d1710;fill-opacity:1;stroke:#000000;stroke-width:0;stroke-linecap:butt;stroke-linejoin:miter;stroke-miterlimit:4;stroke-dasharray:none;stroke-opacity:1"
       d="m 916.38571,297.78647 -31.11205,9.50164 4.5662,92.84628 30.97295,-8.59793 z"
       id="path60" />
    <path
       style="fill:#6d1710;fill-opacity:1;stroke:#000000;stroke-width:0;stroke-linecap:butt;stroke-linejoin:miter;stroke-miterlimit:4;stroke-dasharray:none;stroke-opacity:1"
       d="m 889.83986,400.13439 -15.2207,83.71384 27.18323,-1.29614 19.01042,-91.01563 z"
       id="path62" />
    <path
       style="fill:#68190c;fill-opacity:1;stroke:#000000;stroke-width:0;stroke-linecap:butt;stroke-linejoin:miter;stroke-miterlimit:4;stroke-dasharray:none;stroke-opacity:1"
       d="m 874.61916,483.84823 -27.96802,61.26333 -35.95889,33.6758 -39.38355,15.41094 51.06665,-15.55244 49.99998,-38.54166 29.42706,-57.55211 z"
       id="path64" />
    <path
       style="fill:#62180f;fill-opacity:1;stroke:#000000;stroke-width:0;stroke-linecap:butt;stroke-linejoin:miter;stroke-miterlimit:4;stroke-dasharray:none;stroke-opacity:1"
       d="m 633.31291,163.02084 -17.70066,7.44763 -10.58816,16.2966 -0.68083,799.4205 -28.32199,14.33533 V 214.71355 l 10.67706,-43.6198 18.88019,-14.84375 z"
       id="path66" />
    <path
       style="fill:#31887f;fill-opacity:1;stroke:#000000;stroke-width:0;stroke-linecap:butt;stroke-linejoin:miter;stroke-miterlimit:4;stroke-dasharray:none;stroke-opacity:1"
       d="m 604.64572,687.20843 77.71908,25.97947 -77.71908,31.24107 z"
       id="path68" />
    <path
       style="fill:#3d6092;fill-opacity:1;stroke:#000000;stroke-width:0;stroke-linecap:butt;stroke-linejoin:miter;stroke-miterlimit:4;stroke-dasharray:none;stroke-opacity:1"
       d="m 604.64572,687.20843 v -43.7014 l 14.03717,-6.20093 48.36718,-12.40184 27.28406,-3.72056 h 80.92203 l 137.35039,27.90416 64.48961,29.14434 22.94344,35.0352 -11.16171,30.0745 -34.10506,30.38453 -40.45668,20.90754 -138.33772,-50.09537 45.60102,-19.95047 -1.42504,-40.449 -33.65268,-3.61736 -55.57625,13.15413 -48.56068,19.512 z"
       id="path70" />
    <path
       style="fill:#1d3932;fill-opacity:1;stroke:#000000;stroke-width:0;stroke-linecap:butt;stroke-linejoin:miter;stroke-miterlimit:4;stroke-dasharray:none;stroke-opacity:1"
       d="M 604.64572,744.42897 682.3648,713.1879 v 36.50993 l -77.78901,32.0898 z"
       id="path72" />
    <path
       style="fill:#1c2834;fill-opacity:1;stroke:#000000;stroke-width:0;stroke-linecap:butt;stroke-linejoin:miter;stroke-miterlimit:4;stroke-dasharray:none;stroke-opacity:1"
       d="m 682.3648,713.1879 48.56068,-19.512 55.57625,-13.15413 1.0962,34.74886 -50.64345,11.40027 -54.58968,23.02693 z"
       id="path74" />
    <path
       style="fill:#2b4369;fill-opacity:1;stroke:#000000;stroke-width:0;stroke-linecap:butt;stroke-linejoin:miter;stroke-miterlimit:4;stroke-dasharray:none;stroke-opacity:1"
       d="m 787.59793,715.27063 33.69922,3.50777 -1.14274,-34.63927 -33.65268,-3.61736 z"
       id="path76"
       sodipodi:nodetypes="ccccc" />
    <path
       style="fill:#31887f;fill-opacity:1;stroke:#000000;stroke-width:0;stroke-linecap:butt;stroke-linejoin:miter;stroke-miterlimit:4;stroke-dasharray:none;stroke-opacity:1"
       d="M 775.97843,744.5386 604.49826,819.1482 V 848.06 l 111.30656,46.50694 198.51133,-99.93297 z"
       id="path78" />
    <path
       style="fill:#dea507;fill-opacity:1;stroke:#000000;stroke-width:0;stroke-linecap:butt;stroke-linejoin:miter;stroke-miterlimit:4;stroke-dasharray:none;stroke-opacity:1"
       d="M 715.80482,894.56694 604.73079,950.29774 604.49826,848.06 Z"
       id="path80" />
    <path
       style="fill:#55420f;fill-opacity:1;stroke:#000000;stroke-width:0;stroke-linecap:butt;stroke-linejoin:miter;stroke-miterlimit:4;stroke-dasharray:none;stroke-opacity:1"
       d="m 715.80482,894.56694 v 35.42276 l -111.46156,56.19587 0.38753,-35.88783 z"
       id="path82" />
    <path
       style="fill:#1c2834;fill-opacity:1;stroke:#000000;stroke-width:0;stroke-linecap:butt;stroke-linejoin:miter;stroke-miterlimit:4;stroke-dasharray:none;stroke-opacity:1"
       d="m 914.31615,794.63397 v 35.6179 l 41.33852,-21.10347 33.52605,-29.63463 10.4769,-24.69554 0.38198,-41.55083 -11.16171,30.0745 -34.10506,30.38453 z"
       id="path84" />
    <path
       style="fill:#523f0b;fill-opacity:1;stroke:#000000;stroke-width:0;stroke-linecap:butt;stroke-linejoin:miter;stroke-miterlimit:4;stroke-dasharray:none;stroke-opacity:1"
       d="M 244.13161,754.30203 V 720.0633 l -76.41487,30.60633 -17.48931,16.41304 5.65039,13.99146 30.26997,7.53387 1.09023,-9.9571 z"
       id="path86" />
    <path
       style="fill:#1d3932;fill-opacity:1;stroke:#000000;stroke-width:0;stroke-linecap:butt;stroke-linejoin:miter;stroke-miterlimit:4;stroke-dasharray:none;stroke-opacity:1"
       d="m 715.80482,894.56694 v 35.42276 l 198.51133,-99.73783 v -35.6179 z"
       id="path88" />
  </g>
</svg>
